<?xml version="1.0" encoding="utf-8"?>
<!-- Generator: Adobe Illustrator 24.2.0, SVG Export Plug-In . SVG Version: 6.00 Build 0)  -->
<svg version="1.1" id="Capa_1" xmlns="http://www.w3.org/2000/svg" xmlns:xlink="http://www.w3.org/1999/xlink" x="0px" y="0px"
	 viewBox="0 0 65.6 25.5" style="enable-background:new 0 0 65.6 25.5;" xml:space="preserve">
<style type="text/css">
	.st0{fill:#333333;}
	.st1{fill:#05276B;}
	.st2{fill:#F9008F;}
</style>
<g>
	<path class="st0" d="M16.7,5.6V1.3H17v4.3H16.7z"/>
	<path class="st0" d="M18.5,5.6V1.3h0.3l3.1,3.9h-0.1V1.3H22v4.3h-0.3l-3.1-3.9h0.1v3.9H18.5z"/>
	<path class="st0" d="M23.5,5.6V1.3h1.7c0.5,0,0.9,0.1,1.2,0.3C26.7,1.8,27,2,27.2,2.3c0.2,0.3,0.3,0.7,0.3,1.1s-0.1,0.8-0.3,1.1
		c-0.2,0.3-0.5,0.6-0.8,0.8c-0.3,0.2-0.7,0.3-1.2,0.3H23.5z M23.8,5.3h1.4c0.4,0,0.8-0.1,1.1-0.2c0.3-0.2,0.5-0.4,0.7-0.7
		c0.2-0.3,0.2-0.6,0.2-1s-0.1-0.7-0.2-1c-0.2-0.3-0.4-0.5-0.7-0.7c-0.3-0.2-0.6-0.2-1.1-0.2h-1.4V5.3z"/>
	<path class="st0" d="M30.2,5.6c-0.5,0-0.9-0.2-1.3-0.5c-0.3-0.3-0.5-0.8-0.5-1.4V1.3h0.3v2.5c0,0.5,0.1,0.9,0.4,1.2
		c0.2,0.3,0.6,0.4,1,0.4c0.4,0,0.8-0.1,1-0.4c0.2-0.3,0.4-0.7,0.4-1.2V1.3h0.3v2.5c0,0.6-0.2,1.1-0.5,1.4
		C31.2,5.5,30.8,5.6,30.2,5.6z"/>
	<path class="st0" d="M33.4,5.6V1.3h0.3l2,3.4h-0.1l2-3.4h0.3l0,4.3h-0.3l0-3.8h0.1L35.6,5h-0.2l-1.9-3.2h0.1v3.8H33.4z"/>
	<path class="st0" d="M39.6,5.3h2.6v0.3h-3V1.3h2.9v0.3h-2.6V5.3z M39.5,3.3h2.3v0.3h-2.3V3.3z"/>
	<path class="st0" d="M43.3,5.6V1.3h0.3l3.1,3.9h-0.1V1.3h0.3v4.3h-0.3l-3.1-3.9h0.1v3.9H43.3z"/>
	<path class="st0" d="M49.1,5.6v-4h-1.5V1.3H51v0.3h-1.5v4H49.1z"/>
	<path class="st0" d="M50.8,5.6l2-4.3h0.3l2,4.3h-0.3l-1.9-4.1H53l-1.9,4.1H50.8z M51.6,4.4l0.1-0.3h2.6l0.1,0.3H51.6z"/>
	<path class="st0" d="M55.9,5.6V1.3h1.5c0.4,0,0.7,0.1,0.9,0.2c0.3,0.1,0.5,0.3,0.6,0.5c0.1,0.2,0.2,0.5,0.2,0.8
		c0,0.3-0.1,0.6-0.2,0.8c-0.1,0.2-0.3,0.4-0.6,0.5c-0.3,0.1-0.6,0.2-0.9,0.2H56L56.2,4v1.5H55.9z M56.2,4.1L56,3.9h1.4
		c0.5,0,0.8-0.1,1-0.3c0.2-0.2,0.4-0.5,0.4-0.9c0-0.4-0.1-0.7-0.4-0.9c-0.2-0.2-0.6-0.3-1-0.3H56l0.1-0.2V4.1z M58.8,5.6L57.7,4h0.4
		l1.1,1.6H58.8z"/>
	<path class="st0" d="M60.3,5.6V1.3h0.3v4.3H60.3z"/>
	<path class="st0" d="M61.4,5.6l2-4.3h0.3l2,4.3h-0.3l-1.9-4.1h0.1l-1.9,4.1H61.4z M62.1,4.4l0.1-0.3h2.6l0.1,0.3H62.1z"/>
</g>
<g>
	<path class="st1" d="M0,11.9V8.2h11.6v3.7H0z M2.6,24.6V7.4c0-1.9,0.6-3.4,1.7-4.5C5.4,1.8,7,1.2,9.1,1.2c0.7,0,1.4,0.1,2,0.2
		c0.7,0.1,1.2,0.4,1.7,0.7l-1.3,3.5c-0.3-0.2-0.6-0.3-0.9-0.4C10.3,5.1,9.9,5,9.5,5C8.8,5,8.3,5.2,7.9,5.6C7.5,6,7.3,6.7,7.3,7.5V9
		l0.1,2.1v13.5H2.6z"/>
	<path class="st1" d="M18.9,24.8c-1.3,0-2.4-0.2-3.4-0.7c-0.9-0.4-1.7-1.1-2.2-1.8c-0.5-0.8-0.7-1.6-0.7-2.6c0-1,0.2-1.9,0.7-2.6
		c0.5-0.7,1.3-1.3,2.3-1.8c1.1-0.4,2.4-0.6,4.1-0.6h4.5v2.8h-3.9c-1.1,0-1.9,0.2-2.4,0.6c-0.4,0.4-0.6,0.8-0.6,1.4
		c0,0.6,0.2,1.1,0.7,1.5c0.5,0.4,1.2,0.5,2,0.5c0.8,0,1.5-0.2,2.2-0.6c0.6-0.4,1.1-1,1.4-1.7l0.7,2.2c-0.4,1.1-1,1.9-1.9,2.5
		C21.6,24.5,20.4,24.8,18.9,24.8z M24,24.6v-3.3l-0.3-0.7v-5.9c0-1-0.3-1.8-1-2.4c-0.6-0.6-1.6-0.9-2.9-0.9c-0.9,0-1.8,0.1-2.6,0.4
		c-0.9,0.3-1.6,0.7-2.2,1.1l-1.7-3.4c0.9-0.6,2-1.1,3.3-1.5c1.3-0.4,2.6-0.5,3.9-0.5c2.6,0,4.5,0.6,6,1.8c1.4,1.2,2.1,3.1,2.1,5.6
		v9.6H24z"/>
	<path class="st2" d="M37.2,24.6l-7-16.8h5L41,22.2h-2.5l6.1-14.4h4.7l-7.1,16.8H37.2z"/>
	<path class="st2" d="M55.9,24.8c-1.3,0-2.4-0.2-3.4-0.7c-0.9-0.4-1.7-1.1-2.2-1.8c-0.5-0.8-0.7-1.6-0.7-2.6c0-1,0.2-1.9,0.7-2.6
		c0.5-0.7,1.3-1.3,2.3-1.8c1.1-0.4,2.4-0.6,4.1-0.6h4.5v2.8h-3.9c-1.1,0-1.9,0.2-2.4,0.6c-0.4,0.4-0.6,0.8-0.6,1.4
		c0,0.6,0.2,1.1,0.7,1.5c0.5,0.4,1.2,0.5,2,0.5c0.8,0,1.5-0.2,2.2-0.6c0.6-0.4,1.1-1,1.4-1.7l0.7,2.2c-0.4,1.1-1,1.9-1.9,2.5
		C58.6,24.5,57.4,24.8,55.9,24.8z M61,24.6v-3.3l-0.3-0.7v-5.9c0-1-0.3-1.8-1-2.4c-0.6-0.6-1.6-0.9-2.9-0.9c-0.9,0-1.8,0.1-2.6,0.4
		c-0.9,0.3-1.6,0.7-2.2,1.1l-1.7-3.4c0.9-0.6,2-1.1,3.3-1.5c1.3-0.4,2.6-0.5,3.9-0.5c2.6,0,4.5,0.6,6,1.8c1.4,1.2,2.1,3.1,2.1,5.6
		v9.6H61z"/>
</g>
</svg>
